<svg width="70" height="70" viewBox="0 0 70 70" fill="none" xmlns="http://www.w3.org/2000/svg">
<path d="M17.1919 30.4829V24.7984C17.1919 24.462 17.1919 24.3274 17.6311 24.3274C21.3959 24.3274 24.456 24.1043 25.9754 25.0003C27.4983 25.8928 27.562 27.1253 27.5868 27.4937C27.6116 27.862 27.601 28.3897 26.8927 29.6754C26.1843 30.961 23.0145 30.9858 20.7265 30.9858H17.6984C17.3265 30.9858 17.1919 30.8512 17.1919 30.4829ZM27.6258 36.4401C27.9766 36.8878 28.227 37.4058 28.36 37.9588C28.493 38.5119 28.5055 39.0871 28.3966 39.6454C28.2878 40.2037 28.0602 40.732 27.7292 41.1946C27.3982 41.6572 26.9716 42.0432 26.4783 42.3264C25.7537 42.6313 24.9764 42.7913 24.1903 42.7974H17.6629C17.3265 42.7974 17.1919 42.7975 17.1919 42.3618V35.6326C17.1919 35.2961 17.1919 35.1615 17.6311 35.1615H21.9697C24.6614 35.1615 26.3437 34.9278 27.6258 36.4401Z" fill="#D9D9D9"/>
<path d="M51.3159 33.324C51.1355 32.8985 50.8616 32.519 50.5146 32.2137C50.1676 31.9084 49.7564 31.6851 49.3113 31.5602C48.4218 31.3172 47.4908 31.2657 46.5799 31.4092C45.6689 31.5527 44.7989 31.8878 44.0271 32.3925C43.258 33.1697 42.761 34.1748 42.6104 35.2578C42.6104 35.6368 42.6104 35.7076 43.0602 35.7076H51.4541C51.8684 35.7076 51.8684 35.7076 51.833 35.187C51.7934 34.5361 51.6194 33.9011 51.3159 33.324ZM51.3159 33.324C51.1355 32.8985 50.8616 32.519 50.5146 32.2137C50.1676 31.9084 49.7564 31.6851 49.3113 31.5602C48.4218 31.3172 47.4908 31.2657 46.5799 31.4092C45.6689 31.5527 44.7989 31.8878 44.0271 32.3925C43.258 33.1697 42.761 34.1748 42.6104 35.2578C42.6104 35.6368 42.6104 35.7076 43.0602 35.7076H51.4541C51.8684 35.7076 51.8684 35.7076 51.833 35.187C51.7934 34.5361 51.6124 33.9011 51.3089 33.324M55.2508 0H13.8127C10.1493 0 6.63603 1.45526 4.04564 4.04564C1.45526 6.63603 0 10.1493 0 13.8127V55.2508C0 58.9141 0.00711722 61.7936 3.63492 65.4286C7.26272 69.0635 9.05975 69.0635 12.7231 69.0635H55.2508C58.9141 69.0635 62.4275 67.6082 65.0179 65.0178C67.6082 62.4275 69.0635 58.9141 69.0635 55.2508V13.8127C69.0635 10.1493 67.6082 6.63603 65.0179 4.04564C62.4275 1.45526 58.9141 0 55.2508 0ZM41.7143 21.9941C41.7143 21.7214 41.7143 21.6151 42.026 21.6151H53.2143V24.5193C53.2143 24.5193 53.2249 24.7247 53.0408 24.7247H42.1996C41.7143 24.7247 41.7143 24.7247 41.7143 24.2431V21.9941ZM31.3548 47.3775C27.1048 49.6903 19.9611 48.7588 11.5 48.7588V20.1311H25.001C28.4542 20.1311 32.5625 20.9953 33.6676 24.6539C34.2414 26.2518 34.2064 28.0052 33.5695 29.579C32.9325 31.1528 31.7381 32.4369 30.2144 33.1859C31.6189 33.7056 32.845 34.6168 33.7478 35.8117C34.6506 37.0066 35.1921 38.4351 35.3084 39.9281C35.4246 41.4211 35.1107 42.9162 34.4038 44.2364C33.6969 45.5566 32.6265 46.6467 31.3194 47.3775H31.3548ZM57.0819 39.2281H43.2692C42.8902 39.2281 42.5431 39.4335 42.6104 39.9187C43.0248 41.9552 43.9562 44.0979 46.0671 44.4096C47.1817 44.7413 48.3753 44.6903 49.4575 44.2647C50.5398 43.8392 51.4484 43.0635 52.0385 42.0614C52.0385 42.0614 52.212 41.8525 52.3147 41.8525H56.8056C56.8056 41.8525 57.0819 41.8525 57.011 42.0933C56.5374 43.4344 55.8365 44.684 54.9391 45.7873C53.7388 46.9338 52.2905 47.7883 50.7065 48.2844C49.1226 48.7806 47.4456 48.905 45.8057 48.6481C44.1659 48.3911 42.6073 47.7598 41.251 46.803C39.8946 45.8462 38.777 44.5897 37.9849 43.131C37.4977 42.1583 37.194 41.1042 37.0889 40.0214C36.4729 37.2999 36.9437 34.4455 38.401 32.066C39.8584 29.6865 42.1871 27.9699 44.8913 27.2818C52.7291 25.5889 57.7017 30.9759 57.7017 38.5728C57.7133 38.6616 57.7043 38.7519 57.6755 38.8367C57.6467 38.9215 57.5988 38.9985 57.5354 39.0618C57.4721 39.1251 57.3951 39.1731 57.3103 39.2019C57.2255 39.2307 57.1352 39.2397 57.0464 39.2281H57.0819ZM49.3467 31.5602C48.458 31.3137 47.5263 31.263 46.6161 31.4115C45.7059 31.5532 44.8913 31.7267 44.0625 32.3925C43.2337 33.0548 42.7946 34.174 42.6458 35.2578C42.6458 35.6368 42.6458 35.7076 43.0956 35.7076H51.4541C51.8684 35.7076 51.8684 35.7076 51.833 35.187C51.7934 34.5361 51.6194 33.9011 51.3159 33.324C51.1355 32.8985 50.8616 32.519 50.5146 32.2137C50.1676 31.9084 49.7564 31.6851 49.3113 31.5602H49.3467Z" fill="#D9D9D9"/>
</svg>
