<svg width="69" height="69" viewBox="0 0 69 69" fill="none" xmlns="http://www.w3.org/2000/svg">
<path d="M34.5 0C29.9694 0 25.4832 0.914524 21.2974 2.69136C17.1117 4.46819 13.3084 7.07253 10.1048 10.3557C3.63481 16.9863 0 25.9794 0 35.3565C0 50.9841 9.9015 64.2428 23.598 68.9452C25.323 69.2281 25.875 68.132 25.875 67.1774V61.2022C16.3185 63.3235 14.283 56.4644 14.283 56.4644C12.696 52.363 10.4535 51.267 10.4535 51.267C7.314 49.0749 10.695 49.1456 10.695 49.1456C14.145 49.3931 15.9735 52.7873 15.9735 52.7873C18.975 58.1615 24.0465 56.5704 26.013 55.7219C26.3235 53.4237 27.2205 51.868 28.1865 50.9841C20.5275 50.1002 12.489 47.0595 12.489 33.5887C12.489 29.6641 13.8 26.5174 16.0425 24.0071C15.6975 23.1232 14.49 19.4461 16.3875 14.673C16.3875 14.673 19.2855 13.7183 25.875 18.2793C28.6005 17.5015 31.5675 17.1126 34.5 17.1126C37.4325 17.1126 40.3995 17.5015 43.125 18.2793C49.7145 13.7183 52.6125 14.673 52.6125 14.673C54.51 19.4461 53.3025 23.1232 52.9575 24.0071C55.2 26.5174 56.511 29.6641 56.511 33.5887C56.511 47.0949 48.438 50.0648 40.7445 50.9488C41.9865 52.0448 43.125 54.2016 43.125 57.4897V67.1774C43.125 68.132 43.677 69.2634 45.4365 68.9452C59.133 64.2075 69 50.9841 69 35.3565C69 30.7134 68.1076 26.1158 66.3738 21.8262C64.6401 17.5365 62.0988 13.6388 58.8952 10.3557C55.6916 7.07253 51.8883 4.46819 47.7026 2.69136C43.5168 0.914524 39.0306 0 34.5 0Z" fill="#D9D9D9"/>
</svg>
