<svg width="73" height="69" viewBox="0 0 73 69" fill="none" xmlns="http://www.w3.org/2000/svg">
<path d="M15.32 7.67007C15.319 9.70329 14.511 11.6528 13.0738 13.0898C11.6365 14.5268 9.68776 15.3335 7.65619 15.3325C5.62463 15.3315 3.67667 14.5228 2.24086 13.0844C0.805046 11.646 -0.00101482 9.69562 9.58887e-07 7.66241C0.00101674 5.6292 0.809026 3.67966 2.24628 2.24268C3.68353 0.8057 5.63229 -0.00101565 7.66385 9.59666e-07C9.69542 0.00101757 11.6434 0.809683 13.0792 2.2481C14.515 3.68652 15.3211 5.63686 15.32 7.67007ZM15.5498 21.0093H0.229801V69H15.5498V21.0093ZM39.7555 21.0093H24.5121V69H39.6023V43.8164C39.6023 29.7872 57.8715 28.4839 57.8715 43.8164V69H73V38.6034C73 14.953 45.9601 15.8346 39.6023 27.449L39.7555 21.0093Z" fill="#D9D9D9"/>
</svg>
